<svg width="50" height="27" viewBox="0 0 50 27">
<path d="M19.7969 17.8789C19.4805 20.5859 18.4785 22.6777 16.791 24.1543C15.1152 25.6191 12.8828 26.3516 10.0938 26.3516C7.07031 26.3516 4.64453 25.2676 2.81641 23.0996C1 20.9316 0.0917969 18.0312 0.0917969 14.3984V11.9375C0.0917969 9.55859 0.513672 7.4668 1.35742 5.66211C2.21289 3.85742 3.41992 2.47461 4.97852 1.51367C6.53711 0.541016 8.3418 0.0546875 10.3926 0.0546875C13.1113 0.0546875 15.291 0.816406 16.9316 2.33984C18.5723 3.85156 19.5273 5.94922 19.7969 8.63281H16.4043C16.1113 6.59375 15.4727 5.11719 14.4883 4.20312C13.5156 3.28906 12.1504 2.83203 10.3926 2.83203C8.23633 2.83203 6.54297 3.62891 5.3125 5.22266C4.09375 6.81641 3.48438 9.08398 3.48438 12.0254V14.5039C3.48438 17.2812 4.06445 19.4902 5.22461 21.1309C6.38477 22.7715 8.00781 23.5918 10.0938 23.5918C11.9688 23.5918 13.4043 23.1699 14.4004 22.3262C15.4082 21.4707 16.0762 19.9883 16.4043 17.8789H19.7969ZM28.7793 0.40625L37.1465 21.2891L45.5137 0.40625H49.8906V26H46.5156V16.0332L46.832 5.27539L38.4297 26H35.8457L27.4609 5.32812L27.7949 16.0332V26H24.4199V0.40625H28.7793Z" fill="#0FB5E8"/>
</svg>
