<svg width="1280" height="1070" viewBox="0 0 1280 1070" fill="none" xmlns="http://www.w3.org/2000/svg">
<path d="M-78.1068 297.689C-65.3864 266.158 -25.5835 256.244 0.440307 278.126L225.669 467.504C231.6 472.491 238.609 476.031 246.143 477.845L579.642 558.141C624.273 568.887 631.905 628.667 591.171 649.836C461.129 717.417 263.125 817.017 224.544 817.632C178.609 818.363 -73.0745 721.811 -178.571 680.501C-204.34 670.41 -216.717 641.275 -206.363 615.611L-78.1068 297.689Z" fill="url(#paint0_linear)"/>
<path d="M-105.296 114.984C-107.593 80.5711 -75.1804 54.2212 -41.9613 63.4956L273.365 151.531C280.396 153.494 287.726 154.157 294.995 153.489L1257 65.0001L1293.22 65C1316.27 65.0001 1336.34 80.7649 1341.8 103.165L1386.61 287.106C1391.39 306.721 1384.13 327.108 1367.77 338.939C1257.07 419 835.177 719.469 726 729C615.472 738.649 76.7283 521.686 -53.919 468.254C-71.5033 461.063 -83.3003 444.509 -84.5656 425.553L-105.296 114.984Z" fill="url(#paint1_linear)"/>
<path d="M-105.295 114.984C-107.592 80.5711 -75.1804 54.2212 -41.9613 63.4956L273.365 151.531C280.396 153.494 287.726 154.157 294.995 153.489L1257 65.0001L1293.22 65.0001C1316.27 65 1336.34 80.7649 1341.8 103.165L1386.63 287.206C1391.4 306.771 1384.19 327.111 1367.9 338.954C1257.45 419.268 835.646 721.199 726 729C615.071 736.892 76.9771 521.398 -53.809 468.228C-71.4458 461.058 -83.3028 444.471 -84.5708 425.475L-105.295 114.984Z" fill="url(#paint2_radial)" fill-opacity="0.65"/>
<defs>
<linearGradient id="paint0_linear" x1="-222.778" y1="406.242" x2="431.977" y2="658.582" gradientUnits="userSpaceOnUse">
<stop stop-color="#32419C"/>
<stop offset="1" stop-color="#05C5F6"/>
</linearGradient>
<linearGradient id="paint1_linear" x1="188.5" y1="622" x2="1369.5" y2="-163.5" gradientUnits="userSpaceOnUse">
<stop stop-color="#32419C"/>
<stop offset="1" stop-color="#0FB5E8"/>
</linearGradient>
<radialGradient id="paint2_radial" cx="0" cy="0" r="1" gradientUnits="userSpaceOnUse" gradientTransform="translate(813.5 315) rotate(118.301) scale(561.063 758.574)">
<stop stop-color="#9AFFFB"/>
<stop offset="1" stop-color="#32419C"/>
</radialGradient>
</defs>
</svg>
