<svg width="187" height="27" viewBox="0 0 187 27" fill="none" xmlns="http://www.w3.org/2000/svg">
<path d="M19.7969 17.8789C19.4805 20.5859 18.4785 22.6777 16.791 24.1543C15.1152 25.6191 12.8828 26.3516 10.0938 26.3516C7.07031 26.3516 4.64453 25.2676 2.81641 23.0996C1 20.9316 0.0917969 18.0312 0.0917969 14.3984V11.9375C0.0917969 9.55859 0.513672 7.4668 1.35742 5.66211C2.21289 3.85742 3.41992 2.47461 4.97852 1.51367C6.53711 0.541016 8.3418 0.0546875 10.3926 0.0546875C13.1113 0.0546875 15.291 0.816406 16.9316 2.33984C18.5723 3.85156 19.5273 5.94922 19.7969 8.63281H16.4043C16.1113 6.59375 15.4727 5.11719 14.4883 4.20312C13.5156 3.28906 12.1504 2.83203 10.3926 2.83203C8.23633 2.83203 6.54297 3.62891 5.3125 5.22266C4.09375 6.81641 3.48438 9.08398 3.48438 12.0254V14.5039C3.48438 17.2812 4.06445 19.4902 5.22461 21.1309C6.38477 22.7715 8.00781 23.5918 10.0938 23.5918C11.9688 23.5918 13.4043 23.1699 14.4004 22.3262C15.4082 21.4707 16.0762 19.9883 16.4043 17.8789H19.7969ZM23.0488 16.3145C23.0488 14.4512 23.4121 12.7754 24.1387 11.2871C24.877 9.79883 25.8965 8.65039 27.1973 7.8418C28.5098 7.0332 30.0039 6.62891 31.6797 6.62891C34.2695 6.62891 36.3613 7.52539 37.9551 9.31836C39.5605 11.1113 40.3633 13.4961 40.3633 16.4727V16.7012C40.3633 18.5527 40.0059 20.2168 39.291 21.6934C38.5879 23.1582 37.5742 24.3008 36.25 25.1211C34.9375 25.9414 33.4258 26.3516 31.7148 26.3516C29.1367 26.3516 27.0449 25.4551 25.4395 23.6621C23.8457 21.8691 23.0488 19.4961 23.0488 16.543V16.3145ZM26.3184 16.7012C26.3184 18.8105 26.8047 20.5039 27.7773 21.7812C28.7617 23.0586 30.0742 23.6973 31.7148 23.6973C33.3672 23.6973 34.6797 23.0527 35.6523 21.7637C36.625 20.4629 37.1113 18.6465 37.1113 16.3145C37.1113 14.2285 36.6133 12.541 35.6172 11.252C34.6328 9.95117 33.3203 9.30078 31.6797 9.30078C30.0742 9.30078 28.7793 9.93945 27.7949 11.2168C26.8105 12.4941 26.3184 14.3223 26.3184 16.7012ZM55.5156 20.9551C55.5156 20.0762 55.1816 19.3965 54.5137 18.916C53.8574 18.4238 52.7031 18.002 51.0508 17.6504C49.4102 17.2988 48.1035 16.877 47.1309 16.3848C46.1699 15.8926 45.4551 15.3066 44.9863 14.627C44.5293 13.9473 44.3008 13.1387 44.3008 12.2012C44.3008 10.6426 44.957 9.32422 46.2695 8.24609C47.5938 7.16797 49.2812 6.62891 51.332 6.62891C53.4883 6.62891 55.2344 7.18555 56.5703 8.29883C57.918 9.41211 58.5918 10.8359 58.5918 12.5703H55.3223C55.3223 11.6797 54.9414 10.9121 54.1797 10.2676C53.4297 9.62305 52.4805 9.30078 51.332 9.30078C50.1484 9.30078 49.2227 9.55859 48.5547 10.0742C47.8867 10.5898 47.5527 11.2637 47.5527 12.0957C47.5527 12.8809 47.8633 13.4727 48.4844 13.8711C49.1055 14.2695 50.2246 14.6504 51.8418 15.0137C53.4707 15.377 54.7891 15.8105 55.7969 16.3145C56.8047 16.8184 57.5488 17.4277 58.0293 18.1426C58.5215 18.8457 58.7676 19.707 58.7676 20.7266C58.7676 22.4258 58.0879 23.791 56.7285 24.8223C55.3691 25.8418 53.6055 26.3516 51.4375 26.3516C49.9141 26.3516 48.5664 26.082 47.3945 25.543C46.2227 25.0039 45.3027 24.2539 44.6348 23.293C43.9785 22.3203 43.6504 21.2715 43.6504 20.1465H46.9023C46.9609 21.2363 47.3945 22.1035 48.2031 22.748C49.0234 23.3809 50.1016 23.6973 51.4375 23.6973C52.668 23.6973 53.6523 23.4512 54.3906 22.959C55.1406 22.4551 55.5156 21.7871 55.5156 20.9551ZM66.0625 6.98047L66.1504 9.08984C67.5449 7.44922 69.4258 6.62891 71.793 6.62891C74.4531 6.62891 76.2637 7.64844 77.2246 9.6875C77.8574 8.77344 78.6777 8.03516 79.6855 7.47266C80.7051 6.91016 81.9062 6.62891 83.2891 6.62891C87.4609 6.62891 89.582 8.83789 89.6523 13.2559V26H86.4004V13.4492C86.4004 12.0898 86.0898 11.0762 85.4688 10.4082C84.8477 9.72852 83.8047 9.38867 82.3398 9.38867C81.1328 9.38867 80.1309 9.75195 79.334 10.4785C78.5371 11.1934 78.0742 12.1602 77.9453 13.3789V26H74.6758V13.5371C74.6758 10.7715 73.3223 9.38867 70.6152 9.38867C68.4824 9.38867 67.0234 10.2969 66.2383 12.1133V26H62.9863V6.98047H66.0625ZM93.7129 16.3145C93.7129 14.4512 94.0762 12.7754 94.8027 11.2871C95.541 9.79883 96.5605 8.65039 97.8613 7.8418C99.1738 7.0332 100.668 6.62891 102.344 6.62891C104.934 6.62891 107.025 7.52539 108.619 9.31836C110.225 11.1113 111.027 13.4961 111.027 16.4727V16.7012C111.027 18.5527 110.67 20.2168 109.955 21.6934C109.252 23.1582 108.238 24.3008 106.914 25.1211C105.602 25.9414 104.09 26.3516 102.379 26.3516C99.8008 26.3516 97.709 25.4551 96.1035 23.6621C94.5098 21.8691 93.7129 19.4961 93.7129 16.543V16.3145ZM96.9824 16.7012C96.9824 18.8105 97.4688 20.5039 98.4414 21.7812C99.4258 23.0586 100.738 23.6973 102.379 23.6973C104.031 23.6973 105.344 23.0527 106.316 21.7637C107.289 20.4629 107.775 18.6465 107.775 16.3145C107.775 14.2285 107.277 12.541 106.281 11.252C105.297 9.95117 103.984 9.30078 102.344 9.30078C100.738 9.30078 99.4434 9.93945 98.459 11.2168C97.4746 12.4941 96.9824 14.3223 96.9824 16.7012ZM119.975 0.40625L128.342 21.2891L136.709 0.40625H141.086V26H137.711V16.0332L138.027 5.27539L129.625 26H127.041L118.656 5.32812L118.99 16.0332V26H115.615V0.40625H119.975ZM161.512 14.1699H150.42V23.2402H163.305V26H147.045V0.40625H163.129V3.18359H150.42V11.4102H161.512V14.1699ZM167.506 26V0.40625H174.73C176.957 0.40625 178.926 0.898438 180.637 1.88281C182.348 2.86719 183.666 4.26758 184.592 6.08398C185.529 7.90039 186.004 9.98633 186.016 12.3418V13.9766C186.016 16.3906 185.547 18.5059 184.609 20.3223C183.684 22.1387 182.354 23.5332 180.619 24.5059C178.896 25.4785 176.887 25.9766 174.59 26H167.506ZM170.881 3.18359V23.2402H174.432C177.033 23.2402 179.055 22.4316 180.496 20.8145C181.949 19.1973 182.676 16.8945 182.676 13.9062V12.4121C182.676 9.50586 181.99 7.25 180.619 5.64453C179.26 4.02734 177.326 3.20703 174.818 3.18359H170.881Z" fill="#0FB5E8"/>
</svg>
